<svg height="512pt" viewBox="0 0 512.00071 512" width="512pt" xmlns="http://www.w3.org/2000/svg"><path d="m457.238281 54.761719c-73.042969-73.023438-191.1875-73.007813-264.21875 0-59.675781 59.675781-72.636719 154.0625-28.105469 228.257812l-151.636718 151.636719c-17.613282 17.613281-17.792969 46.265625 0 64.058594 17.730468 17.730468 46.390625 17.699218 64.066406 0l151.597656-151.597656c70.375 42.445312 165.300782 34.863281 228.296875-28.136719 73.023438-73.042969 73.007813-191.1875 0-264.21875zm-401.765625 422.089843c-5.507812 5.53125-14.597656 5.726563-20.324218 0-5.609376-5.585937-5.644532-14.703124 0-20.324218l148.101562-148.101563c6.097656 7.136719 12.972656 14.019531 20.3125 20.335938zm285.109375-134.824218v-22.355469c0-8.542969-6.914062-15.460937-15.457031-15.460937-8.535156 0-15.460938 6.917968-15.460938 15.460937v22.355469c-73.683593-7.222656-132.316406-65.6875-139.621093-139.691406h22.285156c8.546875 0 15.460937-6.925782 15.460937-15.457032 0-8.546875-6.914062-15.460937-15.460937-15.460937h-22.285156c7.40625-74.921875 66.902343-132.585938 139.621093-139.703125v22.367187c0 8.535157 6.925782 15.460938 15.460938 15.460938 8.542969 0 15.457031-6.925781 15.457031-15.460938v-22.363281c73.730469 7.210938 132.484375 65.917969 139.703125 139.699219h-22.367187c-8.535157 0-15.460938 6.914062-15.460938 15.460937 0 8.535156 6.925781 15.460938 15.460938 15.460938h22.367187c-7.21875 73.742187-65.917968 132.46875-139.703125 139.6875zm0 0" fill="#dcdcdc"/><path d="m444.746094 138.25c-1.578125-8.390625-9.65625-13.914062-18.058594-12.328125l-12.191406 2.296875c-4.621094-10.53125-13.328125-19.660156-24.65625-24.621094l2.308594-12.226562c1.578124-8.390625-3.933594-16.46875-12.324219-18.058594-8.402344-1.585938-16.484375 3.9375-18.058594 12.328125l-2.90625 15.378906c-10.835937 2.71875-17.449219 7.851563-24.367187 14.769531-13.628907-5.65625-29.585938-4.898437-42.773438 2.585938l-11.71875-11.71875c-6.039062-6.039062-15.832031-6.039062-21.871094 0-6.03125 6.042969-6.03125 15.820312 0 21.863281l10.472656 10.472657c-8.332031 8.328124-5.183593 5.183593-13.769531 13.757812l-10.464843-10.460938c-6.039063-6.039062-15.820313-6.039062-21.859376 0-6.039062 6.027344-6.039062 15.820313 0 21.859376l10.945313 10.949218c-23.46875 30.609375-21.203125 74.722656 6.792969 102.714844 28.246094 28.246094 72.335937 30.175781 102.730468 6.804688l10.945313 10.945312c6.035156 6.039062 15.832031 6.027344 21.859375 0 6.039062-6.039062 6.039062-15.832031 0-21.863281l-10.472656-10.46875c8.582031-8.582031 5.429687-5.433594 13.773437-13.761719l10.460938 10.460938c6.027343 6.03125 15.832031 6.039062 21.871093 0 6.039063-6.039063 6.039063-15.820313 0-21.859376l-11.71875-11.71875c7.621094-13.464843 8.128907-29.414062 2.585938-42.773437 3.3125-3.3125 11.367188-10.667969 14.792969-24.375l15.355469-2.898437c8.390624-1.585938 13.902343-9.664063 12.316406-18.054688zm-182.628906 50.957031c4.609374-4.59375 2.261718-2.246093 10.65625-10.65625l22.441406 22.4375c-13.3125 13.332031 5.972656-5.972656-42.1875 42.1875-8.738282-18.039062-5.113282-39.824219 9.089844-53.96875zm66.746093 66.746094c-14.910156 14.851563-36.714843 17.503906-53.996093 9.113281 7.289062-7.285156 34.917968-34.917968 42.207031-42.207031l22.4375 22.4375c-8.394531 8.398437-6.050781 6.050781-10.648438 10.65625zm40.941407-40.949219c-2.148438 2.148438-.480469.476563-8.421876 8.433594-4.402343-4.40625-62.136718-62.136719-66.746093-66.75 8.660156-8.648438 6.144531-6.128906 8.417969-8.421875 7.085937-7.078125 18.460937-6.925781 25.386718 0l41.363282 41.351563c6.601562 6.605468 7.476562 17.914062 0 25.386718zm13.203124-55.90625-24.035156-24.042968c6.667969-6.226563 17.140625-6.082032 23.632813.410156 6.484375 6.496094 6.628906 16.964844.402343 23.632812zm0 0" fill="#dcdcdc"/></svg>