<?xml version="1.0" encoding="iso-8859-1"?>
<!-- Generator: Adobe Illustrator 19.0.0, SVG Export Plug-In . SVG Version: 6.00 Build 0)  -->
<svg version="1.1" id="Capa_1" xmlns="http://www.w3.org/2000/svg" xmlns:xlink="http://www.w3.org/1999/xlink" x="0px" y="0px"
	 viewBox="0 0 512 512" style="enable-background:new 0 0 512 512;" xml:space="preserve">
<g>
	<g>
		<path d="M473.844,262.324l-53.194-95.409c-0.509-0.912-0.777-1.945-0.777-2.987c0-0.302-0.188-31.803-1.021-38.729
			C410.284,53.824,349.536,0,277.549,0h-43.074C149.456,0,73.287,53.853,44.94,134.008c-16.572,46.857-15.235,97.955,3.763,143.881
			l21.013,50.795c14.643,35.398,16.949,75.189,6.494,112.043l-5.758,20.296c-3.45,12.16-1.059,24.92,6.559,35.007
			c7.618,10.087,19.238,15.876,31.878,15.884l138.7,0.087c0.009,0,0.017,0,0.027,0c11.17,0,21.672-4.35,29.573-12.247
			c7.907-7.904,12.259-18.415,12.256-29.597l-0.001-2.502c-0.001-5.107,1.986-9.91,5.598-13.522c3.61-3.612,8.412-5.601,13.52-5.601
			h28.493c45.44,0,82.436-36.788,82.802-82.143c0.004-0.096,0.005-0.192,0.007-0.287c0.001-0.13,0.01-0.259,0.01-0.389v-38.501
			c0-0.546,0.35-1.022,0.872-1.185l31.603-9.864c10.784-3.365,19.371-11.311,23.559-21.802
			C480.097,283.868,479.345,272.191,473.844,262.324z M448.016,283.222c-0.482,1.207-1.723,3.368-4.614,4.271l-31.603,9.864
			c-13.134,4.098-21.959,16.095-21.959,29.853v29.136c-23.321,10.874-50.297,9.584-72.515-3.559
			c-7.134-4.222-16.346-1.861-20.57,5.278c-4.223,7.138-1.859,16.348,5.278,20.569c16.954,10.031,35.902,15.08,54.907,15.08
			c8.989,0,17.989-1.137,26.798-3.406c-8.86,16.746-26.457,28.188-46.685,28.188H308.56c-13.131,0-25.475,5.115-34.759,14.401
			c-9.283,9.286-14.395,21.631-14.391,34.765l0.001,2.502c0.001,3.153-1.227,6.119-3.458,8.348c-2.228,2.227-5.19,3.454-8.341,3.454
			c-0.002,0-0.005,0-0.008,0l-138.7-0.087c-4.306-0.002-6.818-2.478-7.932-3.952c-1.114-1.476-2.807-4.568-1.632-8.71l5.758-20.296
			c12.291-43.325,9.58-90.104-7.634-131.72l-21.013-50.795c-16.16-39.065-17.297-82.53-3.2-122.387
			C97.366,75.841,162.157,30.032,234.475,30.032h43.074c56.798,0,104.726,42.452,111.483,98.744
			c0.423,3.673,0.808,27.266,0.808,35.151c0,6.148,1.583,12.237,4.577,17.61l53.195,95.411
			C449.088,279.593,448.5,282.015,448.016,283.222z" fill="#dcdcdc"/>
	</g>
</g>
<g>
	<g>
		<path d="M141.172,207.18l47.318-47.318c5.865-5.863,5.865-15.372,0.001-21.235c-5.863-5.863-15.371-5.864-21.236,0l-57.401,57.4
			c-3.068,3.068-4.515,7.134-4.373,11.153c-0.143,4.019,1.304,8.085,4.373,11.153l57.401,57.401
			c2.932,2.932,6.775,4.399,10.617,4.399c3.842,0,7.686-1.466,10.617-4.399c5.864-5.864,5.864-15.372,0-21.236L141.172,207.18z" fill="#dcdcdc"/>
	</g>
</g>
<g>
	<g>
		<path d="M365.395,195.925l-57.401-57.401c-5.863-5.864-15.372-5.864-21.236,0s-5.864,15.372,0,21.236l47.318,47.318
			l-47.318,47.318c-5.864,5.864-5.864,15.372,0,21.236c2.932,2.932,6.775,4.399,10.617,4.399s7.686-1.466,10.617-4.399
			l57.401-57.401c3.068-3.068,4.516-7.134,4.373-11.153C369.911,203.06,368.463,198.995,365.395,195.925z" fill="#dcdcdc"/>
	</g>
</g>
<g>
	<g>
		<path d="M262.235,107.877c-8.005-2.166-16.252,2.565-18.418,10.569l-44.912,165.87c-2.168,8.006,2.565,16.252,10.569,18.419
			c1.314,0.355,2.635,0.526,3.934,0.526c6.614,0,12.674-4.405,14.485-11.095l44.912-165.869
			C274.973,118.292,270.241,110.045,262.235,107.877z" fill="#dcdcdc"/>
	</g>
</g>
<g>
</g>
<g>
</g>
<g>
</g>
<g>
</g>
<g>
</g>
<g>
</g>
<g>
</g>
<g>
</g>
<g>
</g>
<g>
</g>
<g>
</g>
<g>
</g>
<g>
</g>
<g>
</g>
<g>
</g>
</svg>
