<svg id="Layer_5" enable-background="new 0 0 64 64" height="512" viewBox="0 0 64 64" width="512" xmlns="http://www.w3.org/2000/svg">
<path d="m63 44v-8c0-3.839-2.42-7.114-5.811-8.406 1.703-1.278 2.811-3.306 2.811-5.594 0-3.859-3.141-7-7-7s-7 3.141-7 7c0 2.364 1.181 4.454 2.981 5.722-1.035.301-2.043.691-3.006 1.173-1.448.723-3.067 1.105-4.683 1.105h-.292v-7h-2v-4h-7c-1.654 0-3 1.346-3 3v11h-9v-9.118c6.332-1.012 11-6.418 11-12.927v-6.455c0-1.93-1.57-3.5-3.5-3.5s-3.5 1.57-3.5 3.5v5.5c0 3.309-2.691 6-6 6h-.111c1.301-1.272 2.111-3.042 2.111-5 0-3.859-3.141-7-7-7s-7 3.141-7 7c0 2.236 1.058 4.226 2.696 5.509-4.456 1.406-7.696 5.577-7.696 10.491v5.982c0 1.34.522 2.598 1.473 3.543.944.941 2.204 1.474 3.527 1.456v15.019c0 2.206 1.794 4 4 4 1.201 0 2.266-.542 3-1.382.734.84 1.799 1.382 3 1.382.732 0 1.409-.212 2-.556v6.556h6v-22h22v2h-1.117c-2.155 0-4.062 1.374-4.743 3.419l-3.955 11.867c-.123.367-.185.748-.185 1.133 0 1.975 1.606 3.581 3.581 3.581h.559c1.545 0 2.91-.984 3.396-2.448l2.464-7.39v9.838h6v-8h9c1.103 0 2-.897 2-2v-2c0-1.103-.897-2-2-2h-.111c1.301-1.272 2.111-3.042 2.111-5zm-15-22c0-2.757 2.243-5 5-5s5 2.243 5 5-2.243 5-5 5-5-2.243-5-5zm-9 8h-2.5c-1.93 0-3.5 1.57-3.5 3.5 0 .539.133 1.044.351 1.5h-1.351c-.552 0-1-.448-1-1v-9.184c.314.112.648.184 1 .184h7zm-7-9h5v2h-5c-.552 0-1-.448-1-1s.448-1 1-1zm-6-11v-5.5c0-.827.673-1.5 1.5-1.5s1.5.673 1.5 1.5v6.455c0 5.776-4.338 10.526-10.091 11.049l-.909.083v7.729c-1.161-.414-2-1.514-2-2.816v-9h2c4.411 0 8-3.589 8-8zm-18 1c0-2.757 2.243-5 5-5s5 2.243 5 5-2.243 5-5 5-5-2.243-5-5zm-4.116 24.108c-.571-.567-.884-1.322-.884-2.126v-5.982c0-4.275 2.998-7.855 7-8.768v8.768c0 1.302-.839 2.402-2 2.816v-5.816h-2v11.982c-.799 0-1.55-.31-2.116-.874zm12.116 19.892c-1.103 0-2-.897-2-2v-19h-2v19c0 1.103-.897 2-2 2s-2-.897-2-2v-21.101c2.279-.465 4-2.484 4-4.899v-9h2v9c0 2.414 1.721 4.434 4 4.899v7.101 14c0 1.103-.897 2-2 2zm6 6h-2v-8-12h2zm2-22h-4v-4h9.184c.414 1.161 1.514 2 2.816 2h4.5.006 7.786c1.925 0 3.854-.455 5.577-1.316l.131-.066v3.382h-4zm20.824 11.367-3.186 9.553c-.214.645-.817 1.08-1.498 1.08h-.559c-.872 0-1.581-.709-1.581-1.581 0-.17.027-.338.081-.5l3.955-11.867c.41-1.228 1.554-2.052 2.847-2.052h1.117v4.149c-.542.211-.984.642-1.176 1.218zm5.176 10.633h-2v-20h2v3zm11-10v2h-9v-2h4zm-9-2v-5-5-4.382l1.447-.724-.895-1.789-3.578 1.789c-1.447.724-3.066 1.106-4.682 1.106h-7.786-.006c-.827 0-1.5-.673-1.5-1.5s.673-1.5 1.5-1.5h2.5 2 .292c1.925 0 3.854-.455 5.577-1.316 2.203-1.102 4.669-1.684 7.131-1.684 3.859 0 7 3.141 7 7v8c0 2.757-2.243 5-5 5z" fill="#dcdcdc"/>
<path d="m38 13h1.586l2.293 2.293c.449.449 1.071.707 1.707.707 1.331 0 2.414-1.083 2.414-2.414v-.586h8c1.654 0 3-1.346 3-3v-6c0-1.654-1.346-3-3-3h-16c-1.654 0-3 1.346-3 3v6c0 1.654 1.346 3 3 3zm-1-9c0-.552.448-1 1-1h16c.552 0 1 .448 1 1v6c0 .552-.448 1-1 1h-10v2.586c0 .338-.468.531-.707.293l-2.879-2.879h-2.414c-.552 0-1-.448-1-1z" fill="#dcdcdc"/>
<path d="m45 6h2v2h-2z" fill="#dcdcdc"/><path d="m49 6h2v2h-2z" fill="#dcdcdc"/>
<path d="m41 6h2v2h-2z" fill="#dcdcdc"/></svg>